Coordinates
version=1
nRows=7
nColumns=63
inDegrees=yes

Units are S.I. units (second, meters, Newtons, ...)
If the header above contains a line with 'inDegrees', this indicates whether rotational values are in degrees (yes) or radians (no).

endheader
time	pelvis_tilt	pelvis_list	pelvis_rotation	pelvis_tx	pelvis_ty	pelvis_tz	hip_flexion_r	hip_adduction_r	hip_rotation_r	knee_angle_r	knee_angle_r_beta	ankle_angle_r	subtalar_angle_r	mtp_angle_r	hip_flexion_l	hip_adduction_l	hip_rotation_l	knee_angle_l	knee_angle_l_beta	ankle_angle_l	subtalar_angle_l	mtp_angle_l	L5_S1_Flex_Ext	L5_S1_Lat_Bending	L5_S1_axial_rotation	L4_L5_Flex_Ext	L4_L5_Lat_Bending	L4_L5_axial_rotation	L3_L4_Flex_Ext	L3_L4_Lat_Bending	L3_L4_axial_rotation	L2_L3_Flex_Ext	L2_L3_Lat_Bending	L2_L3_axial_rotation	L1_L2_Flex_Ext	L1_L2_Lat_Bending	L1_L2_axial_rotation	L1_T12_Flex_Ext	L1_T12_Lat_Bending	L1_T12_axial_rotation	Abs_r3	Abs_r2	Abs_r1	Abs_t1	Abs_t2	neck_flexion	neck_bending	neck_rotation	arm_flex_r	arm_add_r	arm_rot_r	elbow_flex_r	pro_sup_r	wrist_flex_r	wrist_dev_r	arm_flex_l	arm_add_l	arm_rot_l	elbow_flex_l	pro_sup_l	wrist_flex_l	wrist_dev_l
      2.28813559	     -3.56505415	     -7.11615204	     69.88168825	      0.19826889	      0.69815528	      0.77002975	     11.04540011	     -1.89569947	      6.40685982	      8.89834403	      0.15530540	     24.44178887	     14.33882257	      0.00000000	      4.98746674	      1.77561981	    -13.32322666	      1.78167062	      0.03109602	     12.76798365	     -9.32166308	      0.00000000	      0.18180572	     -0.69271812	      0.65144525	      0.33763140	     -0.92131509	      0.69216057	      0.29868862	     -1.68427483	      0.69216057	      0.20778576	     -1.68427483	      0.57001459	      0.16882479	     -1.41259078	      0.52929926	      0.10388379	     -1.07302036	      0.48858394	      1.29862007	     -7.83616587	      3.62314303	      0.00000000	      0.00000000	     27.84357157	     -5.64202320	     13.94779829	     11.46913378	    -20.35837898	     53.33045171	     52.95999893	     87.42922263	      3.84323443	     12.77924566	     18.41335438	     -4.68830827	     74.73885055	     46.65515112	     80.66513392	     -3.24575266	      2.88064269
      2.30508475	     -3.14351022	     -7.32069674	     70.55258164	      0.19746523	      0.69880135	      0.76817107	     10.81068787	     -1.66123037	      6.05455789	      8.66370667	      0.15121021	     23.79104790	     14.00973839	      0.00000000	      4.90705248	      1.41854418	    -13.08782820	      1.59788268	      0.02788831	     12.54276196	     -8.90669207	      0.00000000	      0.21416358	     -0.66637505	      0.66438082	      0.39772319	     -0.88627882	      0.70590462	      0.35184935	     -1.62022431	      0.70590462	      0.24476756	     -1.62022431	      0.58133322	      0.19887230	     -1.35887201	      0.53980942	      0.12237307	     -1.03221496	      0.49828562	      1.52974907	     -7.53816788	      3.69508681	      0.00000000	      0.00000000	     27.77298893	     -6.36316694	     14.43533402	     12.17859443	    -19.60098457	     55.82727123	     51.23132277	     87.19096447	      5.66810769	     13.51618927	     19.41828080	     -4.87463443	     77.82678277	     46.49543088	     83.41625589	     -2.85909674	      3.72849956
      2.32203390	     -2.56187425	     -7.23244057	     71.65981975	      0.19582051	      0.69961958	      0.76631737	     10.14817059	     -1.42860179	      5.46129920	      8.38548849	      0.14635438	     23.44610595	     12.96166810	      0.00000000	      4.60944007	      1.02856937	    -12.38668995	      1.59643919	      0.02786312	     12.69437153	     -8.45917835	      0.00000000	      0.19440145	     -0.62610206	      0.57287513	      0.36102293	     -0.83271573	      0.60867983	      0.31938214	     -1.52230454	      0.60867983	      0.22218141	     -1.52230454	      0.50126574	      0.18052118	     -1.27674731	      0.46546104	      0.11108099	     -0.96983209	      0.42965635	      1.38859009	     -7.08259168	      3.18615962	      0.00000000	      0.00000000	     27.69895927	     -6.50934292	     15.48289632	     13.82660742	    -18.73524896	     59.87366089	     49.05120271	     86.51060081	      8.77508648	     12.68003062	     19.90394793	     -5.06658770	     79.33860942	     46.39063029	     86.96855462	     -3.10306674	      4.09283612
      2.33898305	     -2.09489824	     -7.16876056	     72.52168139	      0.19447218	      0.70034889	      0.76472745	      9.65420612	     -1.25937040	      4.96760940	      8.26136219	      0.14418797	     23.04454559	     12.31216727	      0.00000000	      4.35520517	      0.72052723	    -11.58038500	      1.54001734	      0.02687837	     12.63877094	     -8.51173967	      0.00000000	      0.18603029	     -0.59222803	      0.57412029	      0.34547686	     -0.78766327	      0.61000281	      0.30562917	     -1.43994322	      0.61000281	      0.21261402	     -1.43994322	      0.50235526	      0.17274773	     -1.20767139	      0.46647274	      0.10629771	     -0.91736121	      0.43059022	      1.32879577	     -6.69940187	      3.19308484	      0.00000000	      0.00000000	     27.43618205	     -6.06318288	     17.52055998	     14.68611646	    -17.79449330	     62.63089963	     47.46692982	     86.11917437	      9.41502013	     11.65284234	     20.46631509	     -5.16373888	     80.45491087	     45.98009857	     87.74430051	     -1.16987993	      4.51202632
      2.35593220	     -1.62590142	     -7.12604449	     73.48711867	      0.19304637	      0.70107399	      0.76328086	      9.13935493	     -1.05315699	      4.72800367	      7.98138460	      0.13930144	     22.74800351	     11.59716982	      0.00000000	      4.14485293	      0.41125763	    -10.12448297	      1.43526067	      0.02505002	     12.40139658	     -9.49000735	      0.00000000	      0.18052985	     -0.55605461	      0.51347542	      0.33526198	     -0.73955263	      0.54556764	      0.29659249	     -1.35199118	      0.54556764	      0.20632756	     -1.35199118	      0.44929100	      0.16764002	     -1.13390656	      0.41719878	      0.10315476	     -0.86132859	      0.38510657	      1.28950665	     -6.29020095	      2.85579627	      0.00000000	      0.00000000	     26.89323340	     -4.95221170	     20.46830769	     15.46814211	    -16.74496928	     65.16103984	     46.02981750	     85.13405689	      8.56605621	     10.06795438	     19.83797455	     -5.54857553	     78.33605334	     45.65154785	     88.22826798	      1.20192925	      4.95047934
      2.37288136	     -1.19191441	     -7.12868769	     74.55285652	      0.19165589	      0.70165038	      0.76200410	      8.69261997	     -0.83151121	      4.71180574	      7.56570418	      0.13204645	     22.80148234	     11.14344506	      0.00000000	      4.04284496	      0.09932484	     -9.09176372	      1.32537397	      0.02313214	     12.70914771	     -9.80954553	      0.00000000	      0.17344312	     -0.53220076	      0.53475814	      0.32210123	     -0.70782702	      0.56818052	      0.28494971	     -1.29399294	      0.56818052	      0.19822815	     -1.29399294	      0.46791337	      0.16105929	     -1.08526380	      0.43449099	      0.09910540	     -0.82437898	      0.40106861	      1.23888690	     -6.02036147	      2.97416435	      0.00000000	      0.00000000	     25.93758580	     -3.24716384	     23.38330888	     15.01402593	    -15.84153493	     64.48172444	     45.25231413	     83.98289470	      7.27482771	      9.39687181	     18.80960099	     -5.86620604	     75.30065937	     45.15201231	     88.33388217	      2.90805878	      4.83973811
      2.38983051	     -0.74365463	     -7.12942091	     75.78876267	      0.19023562	      0.70212551	      0.76096674	      8.16920278	     -0.53701320	      5.49312460	      6.80917710	      0.11884256	     22.98833144	     10.19714691	      0.00000000	      3.99569786	     -0.24719809	     -7.79913046	      1.17618165	      0.02052824	     13.52588445	    -10.14309976	      0.00000000	      0.15446717	     -0.52047396	      0.48102170	      0.28686098	     -0.69223037	      0.51108556	      0.25377412	     -1.26548039	      0.51108556	      0.17654053	     -1.26548039	      0.42089399	      0.14343822	     -1.06135050	      0.39083013	      0.08826254	     -0.80621417	      0.36076628	      1.10334356	     -5.88770555	      2.67529840	      0.00000000	      0.00000000	     24.76587883	     -0.92319323	     26.18314377	     14.74022228	    -14.85860721	     63.98365146	     44.59447830	     81.93932920	      5.10872533	      9.00812229	     16.74093631	     -6.43160404	     69.66714960	     45.18948729	     88.37356303	      4.04942348	      5.60539517
